<?xml version="1.0" standalone="no"?><!DOCTYPE svg PUBLIC "-//W3C//DTD SVG 1.1//EN" "http://www.w3.org/Graphics/SVG/1.1/DTD/svg11.dtd"><svg t="1780995873788" class="icon" viewBox="0 0 1024 1024" version="1.1" xmlns="http://www.w3.org/2000/svg" p-id="26329" xmlns:xlink="http://www.w3.org/1999/xlink" width="200" height="200"><path d="M646.4512 762.5728a84.8384 84.8384 0 0 1 84.8384-84.8384h125.9008v-430.08a133.12 133.12 0 0 0-133.12-133.12H300.9024a133.12 133.12 0 0 0-133.12 133.12v528.0768a133.12 133.12 0 0 0 133.12 133.12h326.6048a51.712 51.712 0 0 0 18.944-3.6352z" fill="#FF5F5F" p-id="26330"></path><path d="M872.5504 247.7568a148.7872 148.7872 0 0 0-148.48-148.48H300.9024a148.7872 148.7872 0 0 0-148.48 148.48v527.9744a148.8384 148.8384 0 0 0 148.48 148.48h326.6048a66.56 66.56 0 0 0 35.4304-10.24c0.7168-0.4096 1.3312-0.9216 2.048-1.3824s1.9968-1.3312 2.9184-2.048 3.2256-2.56 4.7616-3.9424l166.144-152.4224a104.2944 104.2944 0 0 0 33.7408-76.8zM300.9024 893.696a118.0672 118.0672 0 0 1-117.76-117.76V247.7568a118.016 118.016 0 0 1 117.76-117.76h423.0144a118.016 118.016 0 0 1 117.76 117.76v414.72h-122.88a88.1152 88.1152 0 0 0-88.064 88.064v143.0528h-3.584zM837.8368 701.44c-0.5632 1.6384-1.1264 3.1744-1.792 4.7616l-0.768 1.8432c-0.9216 1.9456-1.8432 3.8912-2.9184 5.7856v0.3072c-1.1264 1.9456-2.3552 3.84-3.6352 5.6832l-1.2288 1.6384c-0.9728 1.3312-2.048 2.6624-3.1232 3.9424l-1.3312 1.5872c-1.4848 1.6384-3.0208 3.2256-4.6592 4.7104l-156.2624 143.36v-124.6208a57.3952 57.3952 0 0 1 57.344-57.344h120.7296c-0.4608 2.1504-1.0752 4.3008-1.7408 6.4-0.1536 0.6144-0.4096 1.2288-0.6144 1.9456z" fill="#424242" p-id="26331"></path><path d="M692.6848 333.9776H326.2464a15.36 15.36 0 1 1 0-30.72h366.4384a15.36 15.36 0 0 1 0 30.72zM692.6848 530.0224H326.2464a15.36 15.36 0 0 1 0-30.72h366.4384a15.36 15.36 0 0 1 0 30.72zM470.4256 728.32H326.2464a15.36 15.36 0 0 1 0-30.72h144.1792a15.36 15.36 0 0 1 0 30.72z" fill="#FFFFFF" p-id="26332"></path></svg>