<?xml version="1.0" standalone="no"?><!DOCTYPE svg PUBLIC "-//W3C//DTD SVG 1.1//EN" "http://www.w3.org/Graphics/SVG/1.1/DTD/svg11.dtd"><svg t="1780995680108" class="icon" viewBox="0 0 1024 1024" version="1.1" xmlns="http://www.w3.org/2000/svg" p-id="1858" xmlns:xlink="http://www.w3.org/1999/xlink" width="200" height="200"><path d="M40.0896 179.2512C37.4784 103.7824 108.9024 34.56 184.4224 40.2432c220.0064 0.1024 439.9616 0.1024 659.968 0.0512 73.8816-3.6352 142.592 64.9728 139.3152 138.8032-0.1024 215.1424 0 430.2848 0 645.4272-0.2048 22.016 1.8432 44.9536-6.8608 65.792-19.3024 53.9136-73.6256 96-131.9936 93.5424H179.2c-67.0208 2.7648-128.8192-52.8896-138.1888-118.3232-1.9456-34.304-0.6144-68.7104-0.9216-103.0656 79.3088-77.4656 156.928-156.6208 235.4176-234.9568 54.7328 54.784 109.7216 109.4144 164.1472 164.5056 7.7312 8.3968 18.8928 14.0288 30.5664 12.3904 14.08-1.0752 23.808-12.288 33.1776-21.5552 64.7168-65.024 129.3824-130.0992 194.3552-194.8672 11.6736 11.1104 22.1696 23.4496 34.56 33.792 12.032 10.1888 33.5872 3.9936 37.4272-11.6224 15.1552-53.9648 29.5936-108.1856 44.1344-162.304 7.5264-18.0736-11.9808-38.5536-30.3616-31.5904-53.9136 14.4896-107.776 29.0816-161.536 44.032-16.7936 3.2256-23.7056 26.112-12.4928 38.6048 12.032 14.4896 25.4976 27.648 37.9392 41.8304-60.1088 60.3136-120.2176 120.6784-180.5312 180.8384-52.5824-52.4288-104.8576-105.1648-157.3376-157.696-8.3456-7.9872-16.128-18.2272-28.2112-20.2752-12.8512-2.8672-26.0608 2.9184-34.7136 12.288-68.864 69.0688-138.0352 137.8304-206.6944 207.104 0.256-161.2288 0-322.5088 0.1536-483.7376m94.1056 672.1536c-16.9472 4.6592-26.6752 25.7024-18.944 41.6256 5.3248 13.0048 19.6096 19.456 33.0752 18.3296h737.8944c14.4384 1.3824 29.7472-6.8608 33.8432-21.3504 6.912-18.688-8.96-40.8064-28.928-39.8336-240.7424-0.7168-481.4848 0.0512-722.176-0.3584-11.5712 0.1024-23.296-0.6656-34.7648 1.5872z" fill="#0d71fd" p-id="1859"></path><path d="M134.1952 851.4048c11.4688-2.2528 23.1936-1.4848 34.7648-1.5872 240.6912 0.4096 481.4336-0.3584 722.176 0.3584 19.968-0.9728 35.84 21.1456 28.928 39.8336-4.096 14.4896-19.4048 22.7328-33.8432 21.3504H148.3264c-13.4656 1.1264-27.7504-5.3248-33.0752-18.3296-7.7312-15.9232 1.9968-36.9664 18.944-41.6256z" fill="#0d71fd" p-id="1860"></path></svg>