<?xml version="1.0" standalone="no"?><!DOCTYPE svg PUBLIC "-//W3C//DTD SVG 1.1//EN" "http://www.w3.org/Graphics/SVG/1.1/DTD/svg11.dtd"><svg t="1780995809384" class="icon" viewBox="0 0 1024 1024" version="1.1" xmlns="http://www.w3.org/2000/svg" p-id="22171" xmlns:xlink="http://www.w3.org/1999/xlink" width="200" height="200"><path d="M512 1024C229.741714 1024 0 794.258286 0 512S229.741714 0 512 0s512 229.741714 512 512-229.741714 512-512 512z" fill="#FF951B" p-id="22172"></path><path d="M969.142857 512c0-251.977143-205.165714-457.142857-457.142857-457.142857S54.857143 260.022857 54.857143 512 260.022857 969.142857 512 969.142857V1024l-13.165714-0.182857C226.998857 1016.905143 7.094857 797.001143 0.182857 525.165714L0 512C0 229.741714 229.741714 0 512 0l13.165714 0.182857C801.389714 7.204571 1024 234.130286 1024 512l-0.182857 13.165714C1016.795429 801.389714 789.869714 1024 512 1024v-54.857143c251.977143 0 457.142857-205.165714 457.142857-457.142857z" fill="#864500" p-id="22173"></path><path d="M668.964571 566.564571H537.6v-51.2h131.364571a25.6 25.6 0 1 0 0-51.2H537.6v-13.494857l112.493714-112.493714a25.6 25.6 0 0 0 0-36.388571 25.6 25.6 0 0 0-36.352 0L512 404.187429l-101.741714-102.4a25.6 25.6 0 0 0-36.352 0 25.6 25.6 0 0 0 0 36.388571l112.493714 112.493714v13.494857H355.035429a25.6 25.6 0 1 0 0 51.2H486.4v51.2H355.035429a25.6 25.6 0 1 0 0 51.2H486.4v86.235429a25.6 25.6 0 1 0 51.2 0v-86.235429h131.364571a25.6 25.6 0 1 0 0-51.2z" fill="#FFFFFF" p-id="22174"></path><path d="M486.948571 709.12a25.6 25.6 0 0 0 19.858286 19.968l5.193143 0.512a25.6 25.6 0 0 0 25.051429-20.48l0.548571-5.12v-86.235429h131.364571a25.6 25.6 0 0 0 25.051429-20.443428l0.548571-5.156572a25.6 25.6 0 0 0-25.6-25.6v-51.2l5.193143-0.548571a25.6 25.6 0 0 0 19.858286-19.858286l0.548571-5.193143a25.6 25.6 0 0 0-25.6-25.6v-54.857142a80.457143 80.457143 0 0 1 62.025143 131.657142 80.457143 80.457143 0 0 1-62.025143 131.657143H592.457143v31.378286a80.457143 80.457143 0 0 1-160.914286 0v-31.378286H355.035429a80.457143 80.457143 0 0 1-62.061715-131.657143 80.457143 80.457143 0 0 1 62.061715-131.657142h12.397714l-32.329143-32.329143a80.457143 80.457143 0 0 1 0-113.956572l6.107429-5.558857a80.457143 80.457143 0 0 1 101.705142 0l6.144 5.558857 0.109715 0.146286L512 326.363429l62.829714-63.195429 0.109715-0.146286a80.457143 80.457143 0 0 1 107.812571-5.558857l6.144 5.558857 5.522286 6.144a80.457143 80.457143 0 0 1-5.522286 107.812572l-32.329143 32.329143h12.397714v54.857142H537.6v-13.494857l112.493714-112.493714a25.6 25.6 0 0 0 0-36.388571 25.636571 25.636571 0 0 0-36.388571 0L512 404.187429l-101.705143-102.4a25.636571 25.636571 0 0 0-36.388571 0 25.636571 25.636571 0 0 0 0 36.388571l112.493714 112.493714v13.494857H355.035429l-5.193143 0.512a25.6 25.6 0 0 0 0 50.139429l5.193143 0.548571H486.4v51.2H355.035429l-5.193143 0.512a25.6 25.6 0 0 0 0 50.139429l5.193143 0.548571H486.4v86.235429l0.512 5.12z m182.016-142.592H537.6v-51.163429h131.364571v51.2z" fill="#864500" p-id="22175"></path></svg>